<svg width="1200" height="630" viewBox="0 0 1200 630" xmlns="http://www.w3.org/2000/svg">
  <rect width="1200" height="630" fill="#050505"/>
  
  <!-- Glow efektleri -->
  <ellipse cx="200" cy="315" rx="400" ry="300" fill="#E50914" opacity="0.07"/>
  <ellipse cx="1050" cy="315" rx="300" ry="250" fill="#E50914" opacity="0.05"/>
  
  <!-- Sol kırmızı çizgi aksanı -->
  <rect x="70" y="160" width="5" height="310" rx="2" fill="#E50914" opacity="0.9"/>
  <rect x="80" y="220" width="2" height="190" rx="1" fill="#E50914" opacity="0.4"/>

  <!-- Logo -->
  <rect x="70" y="80" width="52" height="52" rx="10" fill="#E50914"/>
  <rect x="82" y="91" width="5" height="30" rx="2" fill="white"/>
  <rect x="96" y="91" width="5" height="30" rx="2" fill="white"/>
  <rect x="110" y="91" width="5" height="30" rx="2" fill="white"/>
  <rect x="79" y="99" width="38" height="3" rx="1" fill="white" opacity="0.5"/>
  <rect x="79" y="111" width="38" height="3" rx="1" fill="white" opacity="0.5"/>

  <!-- Site adı -->
  <text x="136" y="116" font-family="system-ui,-apple-system,sans-serif" font-size="36" font-weight="800" fill="white" letter-spacing="-1">dizibulucu</text>
  <text x="138" y="142" font-family="system-ui,-apple-system,sans-serif" font-size="15" fill="#E50914" letter-spacing="4" font-weight="700">.COM.TR</text>

  <!-- Ana başlık -->
  <text x="100" y="270" font-family="system-ui,-apple-system,sans-serif" font-size="78" font-weight="900" fill="white" letter-spacing="-2">"Ne izlesem?"</text>
  <text x="100" y="365" font-family="system-ui,-apple-system,sans-serif" font-size="78" font-weight="900" fill="white" letter-spacing="-2">diye düşünmeyi</text>
  <text x="100" y="460" font-family="system-ui,-apple-system,sans-serif" font-size="78" font-weight="900" fill="#E50914" letter-spacing="-2">bırak.</text>

  <!-- Alt açıklama -->
  <text x="100" y="530" font-family="system-ui,-apple-system,sans-serif" font-size="26" fill="#666" letter-spacing="0.5">Yapay zeka destekli dizi öneri motoru</text>

  <!-- Sağ dekoratif film kartları -->
  <rect x="860" y="120" width="190" height="130" rx="12" fill="#141414" stroke="#2a2a2a" stroke-width="1.5"/>
  <rect x="872" y="132" width="78" height="106" rx="6" fill="#1e1e1e"/>
  <rect x="958" y="132" width="78" height="106" rx="6" fill="#1e1e1e"/>
  <rect x="872" y="132" width="78" height="32" rx="6" fill="#E50914" opacity="0.7"/>
  <rect x="958" y="132" width="78" height="32" rx="6" fill="#E50914" opacity="0.3"/>

  <rect x="860" y="265" width="190" height="130" rx="12" fill="#141414" stroke="#2a2a2a" stroke-width="1.5"/>
  <rect x="872" y="277" width="78" height="106" rx="6" fill="#1e1e1e"/>
  <rect x="958" y="277" width="78" height="106" rx="6" fill="#1e1e1e"/>
  <rect x="872" y="277" width="78" height="32" rx="6" fill="#E50914" opacity="0.35"/>
  <rect x="958" y="277" width="78" height="32" rx="6" fill="#E50914" opacity="0.6"/>

  <rect x="860" y="410" width="190" height="130" rx="12" fill="#141414" stroke="#2a2a2a" stroke-width="1.5"/>
  <rect x="872" y="422" width="78" height="106" rx="6" fill="#1e1e1e"/>
  <rect x="958" y="422" width="78" height="106" rx="6" fill="#1e1e1e"/>
  <rect x="872" y="422" width="78" height="32" rx="6" fill="#E50914" opacity="0.5"/>
  <rect x="958" y="422" width="78" height="32" rx="6" fill="#E50914" opacity="0.2"/>

  <!-- Ikinci kolon kartlar -->
  <rect x="1065" y="185" width="110" height="170" rx="12" fill="#141414" stroke="#2a2a2a" stroke-width="1.5"/>
  <rect x="1075" y="197" width="90" height="146" rx="6" fill="#1e1e1e"/>
  <rect x="1075" y="197" width="90" height="44" rx="6" fill="#E50914" opacity="0.4"/>

  <rect x="1065" y="370" width="110" height="170" rx="12" fill="#141414" stroke="#2a2a2a" stroke-width="1.5"/>
  <rect x="1075" y="382" width="90" height="146" rx="6" fill="#1e1e1e"/>
  <rect x="1075" y="382" width="90" height="44" rx="6" fill="#E50914" opacity="0.25"/>

  <!-- Alt kırmızı çizgi -->
  <rect x="0" y="610" width="1200" height="3" fill="#E50914" opacity="0.25"/>
  <rect x="0" y="613" width="380" height="2" fill="#E50914" opacity="0.5"/>
</svg>
